<?xml version="1.0" standalone="no"?>
<!DOCTYPE svg PUBLIC "-//W3C//DTD SVG 20010904//EN"
 "http://www.w3.org/TR/2001/REC-SVG-20010904/DTD/svg10.dtd">
<svg version="1.0" xmlns="http://www.w3.org/2000/svg"
 width="260.000000pt" height="260.000000pt" viewBox="0 0 260.000000 260.000000"
 preserveAspectRatio="xMidYMid meet">
<metadata>
Created by potrace 1.14, written by Peter Selinger 2001-2017
</metadata>
<g transform="translate(0.000000,260.000000) scale(0.100000,-0.100000)"
fill="#000000" stroke="none">
<path d="M755 2514 c-143 -21 -167 -27 -203 -54 -22 -16 -57 -38 -78 -49 -35
-18 -96 -73 -165 -148 -15 -16 -48 -64 -74 -107 -62 -103 -117 -300 -116 -421
1 -103 58 -339 94 -387 14 -18 33 -49 42 -68 38 -75 204 -229 290 -269 69 -31
230 -74 296 -78 76 -5 125 5 323 68 51 16 84 11 102 -15 13 -22 16 -74 18
-388 l2 -363 38 -67 c31 -55 44 -69 79 -83 58 -23 119 -64 112 -75 -4 -6 126
-10 354 -10 351 0 360 0 366 20 4 12 34 33 78 53 85 40 102 57 116 117 13 56
14 879 1 934 -12 53 -38 86 -91 116 l-44 25 -368 5 c-350 5 -369 6 -383 24
-20 28 -18 58 10 124 65 155 61 551 -7 650 -14 20 -33 57 -43 82 -9 25 -29 59
-45 75 -142 150 -168 174 -212 193 -27 12 -62 32 -77 46 -19 15 -52 28 -95 35
-72 13 -272 22 -320 15z"/>
</g>
</svg>
